<svg width="340" height="375" viewBox="0 0 340 375" fill="none" xmlns="http://www.w3.org/2000/svg">
<g clip-path="url(#clip0_22_576)">
<path d="M308.284 0.0428163C308.284 0.0428163 345.758 -3.11924 339.236 44.4499C332.045 96.9038 256.815 134.499 322.063 196.489C322.063 196.489 267.116 199.753 243.075 190.616C219.034 181.482 232.771 27.4275 232.771 27.4275L267.119 0.507243L308.284 0.0428163Z" fill="#E2BA9C"/>
<path d="M308.284 0.0428162H213.49C213.49 0.0428162 147.208 7.75032 159.973 111.881C168.458 181.11 187.914 215.161 182.047 247.737C179.306 262.951 138.34 266.133 117 257.253L140.395 291.433C207.043 336.966 298.991 294.447 269.205 210.731C224.391 84.7793 257.797 5.9552 308.284 0.0428162Z" fill="white"/>
<path d="M196.765 15.5896C207.564 13.4453 218.27 16.614 229.134 16.6765C238.529 16.7292 247.954 16.1528 257.339 15.8498C258.443 15.8136 258.446 14.1831 257.339 14.2194C246.649 14.5652 235.802 15.4315 225.109 14.9802C215.233 14.5619 206.141 12.0652 196.308 14.0184C195.227 14.2325 195.685 15.807 196.765 15.5929V15.5896Z" fill="#E2E0E0"/>
<path d="M184.755 27.4835C194.825 26.6074 205.222 29.2293 215.355 29.7233C226.252 30.2536 237.182 30.3557 248.089 30.6456C249.196 30.6752 249.192 29.0448 248.089 29.0152C237.185 28.7253 226.248 28.643 215.355 28.0929C205.087 27.5758 195.036 24.9572 184.755 25.8531C183.664 25.9486 183.655 27.5791 184.755 27.4835Z" fill="#E2E0E0"/>
<path d="M173.597 46.7721C185.681 44.4862 198.413 48.307 210.726 48.2609C221.179 48.2213 231.483 49.0086 241.899 49.8353C242.999 49.9242 242.993 48.2905 241.899 48.2049C230.083 47.2661 218.491 46.9796 206.664 46.7029C195.128 46.4328 184.607 43.0303 173.143 45.2009C172.059 45.4051 172.517 46.9796 173.601 46.7754L173.597 46.7721Z" fill="#E2E0E0"/>
<path d="M171.835 66.4196C182.05 66.6206 191.834 69.608 202.063 69.8287C214.136 70.0922 225.527 68.4387 237.531 70.9223C238.608 71.1463 239.069 69.5718 237.989 69.3478C227.573 67.1937 217.446 67.9809 206.865 68.1719C194.95 68.3827 183.661 65.0231 171.835 64.7892C170.728 64.7661 170.728 66.3999 171.835 66.4196Z" fill="#E2E0E0"/>
<path d="M169.714 87.7833C190.856 85.4348 213.52 88.475 234.691 89.9242C235.795 90 235.788 88.3696 234.691 88.2938C213.523 86.8412 190.859 83.8043 169.714 86.1528C168.63 86.2747 168.617 87.9051 169.714 87.7833Z" fill="#E2E0E0"/>
<path d="M171.067 108.05C181.991 105.744 191.735 108.524 202.576 108.729C212.923 108.923 223.323 108.462 233.667 108.317C234.77 108.3 234.774 106.67 233.667 106.686C222.035 106.848 210.057 107.81 198.449 106.996C188.177 106.275 180.828 104.321 170.61 106.479C169.532 106.706 169.987 108.281 171.067 108.053V108.05Z" fill="#E2E0E0"/>
<path d="M173.4 128.518C194.285 128.788 215.341 129.424 236.194 128.139C237.291 128.07 237.297 126.439 236.194 126.509C215.338 127.793 194.282 127.157 173.4 126.887C172.293 126.874 172.293 128.505 173.4 128.518Z" fill="#E2E0E0"/>
<path d="M175.165 149.677C186.418 146.667 195.668 150.837 206.645 149.911C216.764 149.058 225.84 147.148 236.111 148.396C237.205 148.528 237.195 146.897 236.111 146.765C224.4 145.343 214.666 148.495 203.262 148.521C192.348 148.547 185.628 145.181 174.704 148.103C173.644 148.386 174.095 149.96 175.162 149.677H175.165Z" fill="#E2E0E0"/>
<path d="M183.444 171.548C193.112 165.356 203.077 169.671 213.572 169.641C223.755 169.611 233.005 168.198 243.289 169.819C244.37 169.99 244.834 168.419 243.747 168.244C232.181 166.42 221.142 168.584 209.646 167.813C199.888 167.157 191.264 164.572 182.577 170.138C181.665 170.721 182.525 172.134 183.444 171.548Z" fill="#E2E0E0"/>
<path d="M189.037 191.667C198.086 188.37 207.465 190.771 216.87 190.148C228.419 189.384 236.559 187.586 248.198 190.369C249.268 190.626 249.726 189.051 248.655 188.794C239.695 186.653 231.513 186.66 222.365 187.773C211.194 189.13 199.206 186.222 188.579 190.096C187.558 190.468 188.003 192.045 189.037 191.67V191.667Z" fill="#E2E0E0"/>
<path d="M194.282 212.586C204.279 211.008 212.999 217.368 222.641 218.31C235.558 219.572 245.822 221.377 257.527 227.144C258.505 227.628 259.375 226.219 258.393 225.735C248.072 220.649 237.709 218.007 226.163 216.92C215.009 215.87 205.047 209.242 193.824 211.015C192.737 211.186 193.198 212.757 194.282 212.589V212.586Z" fill="#E2E0E0"/>
<path d="M194.598 228.103C203.627 228.646 209.267 234.928 216.405 239.025C222.638 242.602 226.351 243.244 232.175 248.528C239.356 255.04 248.3 258.794 257.095 263.264C258.07 263.758 258.937 262.352 257.962 261.854C250.606 258.116 242.281 254.934 236.184 249.48C233.146 246.765 231.595 244.144 228.34 241.845C225.31 239.704 220.638 239.42 217.275 237.619C214.393 236.074 212.044 233.781 209.356 231.986C204.388 228.663 200.653 226.838 194.601 226.476C193.498 226.41 193.501 228.04 194.601 228.106L194.598 228.103Z" fill="#E2E0E0"/>
<path d="M181.299 242.276C184.916 246.202 184.063 251.41 185.799 256.024C187.285 259.974 190.177 263.429 192.595 266.881C195.813 271.482 194.934 274.743 196.225 279.773C197.846 286.08 199.773 287.503 200.435 294.203C200.537 295.24 202.257 295.25 202.151 294.203C201.723 289.878 200.234 286.196 199.299 282.052C198.053 276.542 199.229 274.895 197.23 270.57C193.409 262.316 188.033 258.235 186.069 248.87C185.318 245.283 184.949 243.771 182.515 241.126C181.787 240.336 180.575 241.492 181.299 242.279V242.276Z" fill="#E2E0E0"/>
</g>
<g clip-path="url(#clip1_22_576)">
<path d="M103.565 254.129C105.263 248.697 106.087 242.912 105.864 237.224C110.876 235.466 115.886 232.768 119.942 229.336C123.489 228.82 126.598 226.529 128.782 223.683C130.969 220.838 132.34 217.459 133.544 214.076C134.884 210.314 136.058 206.363 135.611 202.376C135.558 201.91 135.461 201.447 135.26 201.025C134.204 198.793 131.522 198.882 129.4 199.775C126.642 203.65 122.771 206.572 118.859 209.276C107.444 217.173 95.7496 224.406 82.9777 229.672C80.5228 230.684 78.5713 232.642 77.5823 235.113C71.8748 249.379 67.171 264.048 63.5211 278.978C73.688 278.792 83.8637 276.144 91.2343 269.126C92.5883 267.838 93.8275 266.431 95.0285 264.998C97.9632 261.501 102.202 258.484 103.565 254.123V254.129Z" fill="#E2BA9C"/>
<path d="M119.171 228.611C119.045 228.611 118.918 228.555 118.83 228.451C116.825 226.022 115.383 223.12 114.662 220.053C114.606 219.815 114.753 219.579 114.988 219.523C115.227 219.467 115.462 219.614 115.521 219.853C116.213 222.787 117.593 225.568 119.513 227.891C119.669 228.08 119.642 228.357 119.454 228.513C119.371 228.581 119.271 228.614 119.171 228.614V228.611Z" fill="#C19D85"/>
<path d="M147.62 231.907C137.035 236.823 125.094 237.805 113.434 238.265C101.775 238.725 90.6574 239.141 79.4455 242.384C78.1386 246.931 73.167 252.604 71.6687 251.098C70.2912 255.226 68.6605 262.612 65.6905 266.337C63.3327 269.294 60.7777 272.128 57.7783 274.431C54.8112 276.71 51.4615 278.435 48.0765 280.028C32.7466 287.228 16.3718 291.893 0.0294426 296.325C-0.188378 307.008 0.771209 317.544 4.76556 327.452C8.75991 337.36 15.9274 346.041 24.9934 351.67C45.7393 339.624 67.0504 327.576 90.1776 321.189C110.308 315.63 130.633 311.063 149.919 302.836C153.696 279.223 152.707 255.273 147.623 231.907H147.62Z" fill="#E2BA9C"/>
<path d="M166.632 367.153C171.439 346.739 177.011 325.727 190.172 309.412C191.911 307.253 193.783 305.18 195.199 302.798C196.615 300.412 197.834 297.646 197.51 294.892C200.886 292.041 205.181 288.157 205.01 283.737C204.651 274.449 207.559 265.387 208.583 256.149C210.297 240.677 218.185 239.583 213.873 231.35C211.969 227.711 203.727 222.153 200.15 220.139C196.574 218.125 192.656 216.819 188.762 215.527C181.694 230.106 172.272 243.301 164.463 257.496C150.475 282.926 143.008 311.921 142.97 340.957C142.958 350.004 142.793 358.868 143.755 367.864C151.158 371.087 159.182 370.279 166.63 367.159L166.632 367.153Z" fill="#EDC8A9"/>
<path d="M105.934 269.111C105.893 269.111 105.849 269.105 105.808 269.094C105.575 269.023 105.44 268.778 105.51 268.542C106.317 265.835 107.518 258.882 106.279 251.95C104.636 242.75 99.4614 236.693 90.8987 233.945C90.6662 233.871 90.5396 233.621 90.6132 233.388C90.6868 233.155 90.937 233.028 91.1695 233.102C99.9442 235.915 105.469 242.378 107.15 251.794C108.416 258.888 107.185 266.018 106.358 268.796C106.302 268.988 106.126 269.111 105.934 269.111Z" fill="#C19D85"/>
<path d="M94.1807 287.29C93.9894 287.29 93.8128 287.163 93.7569 286.969C93.6892 286.733 93.8246 286.488 94.0601 286.42C97.5128 285.427 99.9059 282.799 101.307 280.768C103.047 278.247 104.206 275.372 105.431 272.152C105.516 271.924 105.772 271.807 106.002 271.895C106.229 271.98 106.343 272.237 106.258 272.467C105.01 275.746 103.833 278.668 102.034 281.272C100.551 283.419 98.0073 286.205 94.3044 287.27C94.2632 287.281 94.222 287.287 94.1807 287.287V287.29Z" fill="#C19D85"/>
<path d="M101.472 284.058L145.987 301.589C149.492 302.969 154.014 300.742 156.056 296.605L221.344 164.405C223.386 160.268 220.463 153.1 215.371 152.442L168.984 147.353C165.626 146.781 161.399 149.408 159.518 153.221L96.462 272.311C94.1866 277.689 98.4282 282.858 101.475 284.058H101.472Z" fill="#1D1D1B"/>
<path d="M98.8197 280.785L143.335 298.316C146.84 299.696 151.361 297.469 153.404 293.332L218.689 161.132C220.731 156.995 219.23 153.103 215.368 152.442L166.329 144.08C162.971 143.508 158.744 146.135 156.863 149.948L96.7269 271.721C94.846 275.531 95.7702 279.588 98.8197 280.788V280.785Z" fill="#494943"/>
<path d="M165.661 145.654L214.432 154.085C217.405 154.598 218.556 157.602 216.984 160.79L151.815 292.757C150.24 295.945 146.755 297.667 144.05 296.608L99.6822 279.261C97.3215 278.338 96.6032 275.203 98.0573 272.255L158.341 150.183C159.798 147.235 163.068 145.206 165.661 145.654Z" fill="#BCBCBC"/>
<path d="M197.054 201.146L152.398 291.572L98.5989 271.161L139.908 187.514L197.054 201.146Z" fill="white"/>
<path d="M216.398 161.975L197.054 201.146L139.908 187.514L157.802 151.28L216.398 161.975Z" fill="#FCD69F"/>
<path d="M183.443 176.669C181.368 180.874 176.649 183.61 172.937 182.787C169.264 181.974 167.966 177.972 170.006 173.844C172.046 169.716 176.679 166.962 180.387 167.699C184.135 168.445 185.518 172.464 183.44 176.669H183.443Z" fill="#FFC364"/>
<path d="M180.243 175.997L175.881 171.886L173.023 177.671L180.243 175.997Z" fill="white"/>
<path d="M145.848 201.574C144.609 204.083 141.877 205.661 139.761 205.103C137.656 204.549 136.953 202.09 138.177 199.607C139.402 197.124 142.104 195.538 144.223 196.066C146.355 196.596 147.087 199.064 145.848 201.574Z" fill="#E2E0E0"/>
<path d="M186.94 211.706L147.876 201.712L148.968 199.504L188.091 209.376L186.94 211.706Z" fill="#E2E0E0"/>
<path d="M185.436 214.749L146.452 204.596L147.544 202.391L186.587 212.419L185.436 214.749Z" fill="#E2E0E0"/>
<path d="M138.145 217.173C136.906 219.682 134.195 221.224 132.099 220.617C130.018 220.015 129.332 217.518 130.557 215.038C131.781 212.555 134.466 211.007 136.561 211.582C138.669 212.16 139.384 214.663 138.145 217.173Z" fill="#E2E0E0"/>
<path d="M178.792 228.201L140.155 217.352L141.245 215.144L179.943 225.871L178.792 228.201Z" fill="#E2E0E0"/>
<path d="M177.291 231.244L138.731 220.236L139.82 218.028L178.442 228.914L177.291 231.244Z" fill="#E2E0E0"/>
<path d="M130.442 232.771C129.203 235.281 126.509 236.785 124.437 236.133C122.377 235.484 121.711 232.951 122.936 230.468C124.16 227.986 126.827 226.476 128.899 227.095C130.983 227.72 131.681 230.262 130.442 232.771Z" fill="#E2E0E0"/>
<path d="M170.647 244.696L132.432 232.992L133.521 230.784L171.795 242.366L170.647 244.696Z" fill="#E2E0E0"/>
<path d="M169.143 247.739L131.007 235.876L132.096 233.668L170.294 245.41L169.143 247.739Z" fill="#E2E0E0"/>
<path d="M122.739 248.37C121.5 250.879 118.827 252.345 116.778 251.646C114.741 250.953 114.094 248.382 115.318 245.899C116.543 243.416 119.189 241.942 121.24 242.608C123.304 243.281 123.978 245.861 122.739 248.37Z" fill="#E2E0E0"/>
<path d="M162.5 261.194L124.708 248.632L125.797 246.424L163.651 258.865L162.5 261.194Z" fill="#E2E0E0"/>
<path d="M160.999 264.237L123.283 251.516L124.372 249.308L162.147 261.908L160.999 264.237Z" fill="#E2E0E0"/>
<path d="M115.036 263.969C113.796 266.478 111.141 267.905 109.116 267.159C107.103 266.419 106.473 263.81 107.697 261.33C108.922 258.847 111.55 257.411 113.578 258.124C115.618 258.841 116.275 261.459 115.036 263.969Z" fill="#E2E0E0"/>
<path d="M154.355 277.689L116.984 264.27L118.076 262.061L155.503 275.36L154.355 277.689Z" fill="#E2E0E0"/>
<path d="M152.851 280.732L115.559 267.156L116.652 264.948L154.002 278.403L152.851 280.732Z" fill="#E2E0E0"/>
<path d="M188.22 229.997C188.921 227.039 190.319 224.099 192.806 222.353C195.291 220.608 199.023 220.437 201.192 222.56C203.147 224.474 203.329 227.688 202.293 230.221C201.257 232.754 199.232 234.741 197.166 236.534C195.688 237.817 194.119 239.061 192.273 239.704C190.525 240.311 187.602 240.523 186.96 238.627C186.325 236.752 187.761 231.94 188.22 229.999V229.997Z" fill="#EDC8A9"/>
<path d="M104.739 235.201C104.589 235.201 104.445 235.124 104.359 234.986C102.62 232.093 99.9677 229.728 96.8947 228.333C96.6739 228.233 96.5738 227.971 96.6739 227.747C96.774 227.526 97.036 227.425 97.2597 227.526C100.492 228.994 103.282 231.48 105.116 234.526C105.242 234.735 105.175 235.006 104.966 235.133C104.895 235.177 104.816 235.195 104.739 235.195V235.201Z" fill="#C19D85"/>
<path d="M177.6 245.424C177.397 243.729 177.785 242.016 178.289 240.385C178.922 238.321 179.79 236.236 181.391 234.791C182.995 233.346 185.503 232.721 187.355 233.827C187.888 234.145 188.338 234.585 188.744 235.054C190.872 237.525 191.773 241.081 190.819 244.201C189.074 249.906 178.577 253.533 177.6 245.427V245.424Z" fill="#EDC8A9"/>
<path d="M185.783 311.01C179.192 304.652 170.615 300.624 161.637 298.734C161.949 296.688 162.191 294.618 162.382 292.545C163.445 281.036 162.297 271.408 159.5 260.191C158.47 256.06 157.563 250.012 158.429 245.843C159.833 239.085 163.73 237.421 161.478 224.241C160.189 216.704 157.072 214.946 153.307 214.569C146.687 213.902 143.461 219.95 140.939 228.979C139.752 233.228 140.903 239.677 140.067 244.086C137.191 259.248 130.098 259.277 125.588 285.592C124.564 291.575 123.887 297.643 124.249 303.703C124.396 306.165 126.777 319.57 124.493 341.93C123.539 351.275 121.703 360.513 119.625 369.672C136.815 376.159 155.621 376.852 173.046 371.034C172.205 350.228 174.951 328.779 185.783 311.01Z" fill="#EDC8A9"/>
<path d="M199.391 270.822C199.544 265.514 201.054 260.247 203.738 255.668C206.411 251.109 210.173 247.297 213.234 242.989C214.114 241.75 214.95 240.441 215.309 238.964C216.116 235.67 214.291 232.12 211.506 230.188C208.725 228.257 204.689 226.505 201.646 227.988C196.98 230.262 193.698 234.927 192.83 240.049C184.4 244.764 176.166 250.405 171.436 258.835C165.794 259.395 160.269 261.138 155.323 263.919C149.507 267.192 148.029 275.917 150.44 282.148C152.851 288.381 158.664 292.919 165.072 294.786C167.727 295.561 170.512 295.927 173.273 295.735C181.839 295.143 189.262 289.251 194.234 282.239C196.6 278.901 199.267 274.909 199.385 270.816L199.391 270.822Z" fill="#EDC8A9"/>
<path d="M158.915 222.625C158.867 222.625 158.82 222.616 158.773 222.601C154.699 221.221 150.32 221.139 146.107 222.362C145.966 222.404 145.81 222.371 145.698 222.274C145.586 222.177 145.527 222.032 145.545 221.882C145.745 220.266 146.204 218.818 146.955 217.459C147.073 217.246 147.341 217.167 147.556 217.285C147.77 217.403 147.847 217.671 147.729 217.886C147.138 218.957 146.74 220.089 146.522 221.33C150.487 220.304 154.579 220.384 158.429 221.56C158.308 220.396 157.981 219.24 157.416 217.975C157.316 217.75 157.416 217.491 157.64 217.391C157.864 217.29 158.123 217.391 158.223 217.615C158.935 219.219 159.297 220.667 159.356 222.165C159.362 222.309 159.297 222.451 159.179 222.536C159.103 222.595 159.009 222.625 158.915 222.625Z" fill="#D1AF95"/>
<path d="M182.045 318.603C181.98 318.603 181.915 318.588 181.853 318.558C181.633 318.452 181.541 318.19 181.644 317.969C185.477 309.936 190.172 302.29 195.6 295.24C195.75 295.045 196.026 295.01 196.218 295.16C196.412 295.311 196.447 295.588 196.297 295.78C190.908 302.78 186.245 310.373 182.439 318.349C182.363 318.508 182.207 318.6 182.042 318.6L182.045 318.603Z" fill="#D1AF95"/>
<path d="M175.76 318.786C175.716 318.786 175.672 318.78 175.628 318.765C175.395 318.691 175.266 318.444 175.339 318.211C180.02 303.263 186.822 289.095 195.555 276.103C195.691 275.899 195.965 275.846 196.168 275.982C196.371 276.118 196.424 276.392 196.288 276.595C187.602 289.519 180.835 303.608 176.181 318.476C176.122 318.665 175.949 318.786 175.76 318.786Z" fill="#D1AF95"/>
<path d="M179.893 248.972C179.772 248.972 179.652 248.921 179.566 248.824C179.404 248.641 179.416 248.364 179.599 248.199C183.369 244.79 187.567 241.883 192.079 239.55C193.669 235.623 198.52 229.138 205.089 227.98C205.331 227.935 205.557 228.098 205.602 228.339C205.643 228.581 205.484 228.808 205.243 228.852C198.943 229.964 194.293 236.298 192.842 240.031C192.803 240.131 192.727 240.214 192.633 240.264C188.132 242.573 183.946 245.463 180.193 248.857C180.108 248.933 180.002 248.972 179.899 248.972H179.893Z" fill="#D1AF95"/>
<path d="M189.309 227.437C191.576 221.935 194.858 221.044 196.238 221.498C196.621 221.625 196.783 222.088 196.921 222.468C197.33 223.601 197.272 224.851 197.077 226.039C196.453 229.908 194.44 233.535 191.493 236.109C190.896 236.631 189.742 237.569 188.865 237.209C188.164 236.923 188.335 236.103 188.382 235.484C188.562 233.181 188.426 229.578 189.309 227.434V227.437Z" fill="#EDC8A9"/>
<path d="M190.84 240.574C190.646 240.574 190.469 240.447 190.416 240.252C190.069 239.017 189.651 237.716 188.938 236.596C188.809 236.389 188.868 236.115 189.074 235.985C189.28 235.853 189.554 235.915 189.683 236.121C190.457 237.339 190.902 238.713 191.264 240.013C191.329 240.249 191.193 240.494 190.958 240.559C190.916 240.571 190.878 240.577 190.837 240.577L190.84 240.574Z" fill="#D1AF95"/>
<path d="M202.084 229.846C202.061 229.846 202.034 229.846 202.011 229.84C201.769 229.799 201.607 229.572 201.649 229.33C201.878 227.991 201.707 226.042 201.251 224.795C200.777 223.498 199.847 222.492 198.758 222.103C198.078 221.861 197.345 221.84 196.524 221.84C196.28 221.84 196.082 221.643 196.082 221.398C196.082 221.153 196.28 220.956 196.524 220.956C197.395 220.956 198.243 220.979 199.052 221.271C200.386 221.746 201.519 222.952 202.081 224.494C202.59 225.889 202.773 227.986 202.517 229.483C202.482 229.699 202.293 229.852 202.081 229.852L202.084 229.846Z" fill="#D1AF95"/>
<path d="M163.147 273.986C162.953 273.986 162.776 273.856 162.723 273.661L159.907 263.468C159.842 263.232 159.98 262.99 160.216 262.922C160.451 262.857 160.692 262.996 160.76 263.229L163.577 273.422C163.642 273.658 163.503 273.9 163.268 273.968C163.23 273.98 163.189 273.983 163.15 273.983L163.147 273.986Z" fill="#D1AF95"/>
<path d="M124.908 310.452C124.684 310.452 124.493 310.284 124.47 310.057C123.94 305.08 123.79 300.023 124.025 295.022C124.037 294.777 124.246 294.588 124.487 294.6C124.732 294.612 124.92 294.818 124.908 295.063C124.676 300.017 124.823 305.033 125.347 309.963C125.373 310.205 125.197 310.423 124.955 310.45C124.941 310.45 124.923 310.45 124.908 310.45V310.452Z" fill="#C19D85"/>
<path d="M154.676 236.236C150.714 236.236 146.775 235.242 143.279 233.323C143.064 233.205 142.987 232.936 143.105 232.721C143.223 232.506 143.491 232.429 143.705 232.547C148.218 235.024 153.493 235.9 158.561 235.015C158.8 234.971 159.029 235.133 159.073 235.375C159.115 235.617 158.956 235.844 158.714 235.885C157.378 236.118 156.027 236.233 154.679 236.233L154.676 236.236Z" fill="#D1AF95"/>
<path d="M158.915 230.551C158.862 230.551 158.809 230.542 158.756 230.521C154.267 228.779 149.222 228.446 144.544 229.581C144.306 229.64 144.067 229.492 144.012 229.256C143.953 229.021 144.1 228.779 144.335 228.723C149.186 227.543 154.42 227.888 159.073 229.699C159.3 229.787 159.415 230.044 159.327 230.271C159.259 230.445 159.091 230.554 158.915 230.554V230.551Z" fill="#D1AF95"/>
</g>
<defs>
<clipPath id="clip0_22_576">
<rect width="223" height="310" fill="white" transform="translate(117)"/>
</clipPath>
<clipPath id="clip1_22_576">
<rect width="222" height="231" fill="white" transform="translate(0 144)"/>
</clipPath>
</defs>
</svg>
